<svg width="1280" height="720" xmlns="http://www.w3.org/2000/svg" xmlns:xlink="http://www.w3.org/1999/xlink" overflow="hidden">
	<defs>
		<clipPath id="clip0">
			<rect x="0" y="0" width="1280" height="720"/>
		</clipPath>
	</defs>
	<g clip-path="url(#clip0)">
		<rect x="0" y="0" width="1280" height="720" fill="#FFFFFF"/>
		<rect x="127.5" y="233.5" width="397" height="282" stroke="#2F528F" stroke-width="1.33333" stroke-miterlimit="8" fill="#4472C4"/>
		<text fill="#FFFFFF" font-family="Calibri,Calibri_MSFontService,sans-serif" font-weight="400" font-size="24" transform="translate(289.662 382)">Block A</text>
		<path d="M785.5 362.5C785.5 308.928 834.973 265.5 896 265.5 957.028 265.5 1006.5 308.928 1006.5 362.5 1006.5 416.072 957.028 459.5 896 459.5 834.973 459.5 785.5 416.072 785.5 362.5Z" stroke="#2F528F" stroke-width="1.33333" stroke-miterlimit="8" fill="#4472C4" fill-rule="evenodd"/>
		<text id="ellipse" fill="#FFFFFF" font-family="Calibri,Calibri_MSFontService,sans-serif" font-weight="400" font-size="24" transform="translate(855.35 370)">Ellipse B</text>
		<path d="M0-0.333333 130.922-0.333333 130.922 16.3765 130.588 16.0431 254.51 16.0431 254.51 16.7098 130.255 16.7098 130.255 0 130.588 0.333333 0 0.333333ZM253.176 12.3765 261.176 16.3765 253.176 20.3765Z" fill="#4472C4" transform="matrix(1 0 0 -1 524.5 378.877)"/>
	</g>
</svg>